<svg width="40" height="41" viewBox="0 0 40 41" fill="none" xmlns="http://www.w3.org/2000/svg">
<g id="facebook 1" clip-path="url(#clip0_122_323)">
<path id="Vector" d="M40.0001 20.1328C40.0001 9.01781 31.0451 0.0078125 20.0001 0.0078125C8.95012 0.0103125 -0.00488281 9.01781 -0.00488281 20.1353C-0.00488281 30.1778 7.31012 38.5028 16.8701 40.0128V25.9503H11.7951V20.1353H16.8751V15.6978C16.8751 10.6553 19.8626 7.87031 24.4301 7.87031C26.6201 7.87031 28.9076 8.26281 28.9076 8.26281V13.2128H26.3851C23.9026 13.2128 23.1276 14.7653 23.1276 16.3578V20.1328H28.6726L27.7876 25.9478H23.1251V40.0103C32.6851 38.5003 40.0001 30.1753 40.0001 20.1328Z" fill="#F3F3F3"/>
</g>
<defs>
<clipPath id="clip0_122_323">
<rect width="40" height="40" fill="white" transform="translate(0 0.0102539)"/>
</clipPath>
</defs>
</svg>
