<svg width="40" height="41" viewBox="0 0 40 41" fill="none" xmlns="http://www.w3.org/2000/svg">
<g id="instagram 1" clip-path="url(#clip0_122_325)">
<path id="Vector" d="M20 0.0102539C14.5725 0.0102539 13.89 0.0352539 11.7575 0.130254C9.625 0.230254 8.1725 0.565254 6.9 1.06025C5.56461 1.56107 4.35535 2.34875 3.3575 3.36775C2.3385 4.36561 1.55081 5.57486 1.05 6.91025C0.555 8.18025 0.2175 9.63525 0.12 11.7603C0.025 13.8978 0 14.5778 0 20.0128C0 25.4428 0.025 26.1228 0.12 28.2553C0.22 30.3853 0.555 31.8378 1.05 33.1103C1.5625 34.4253 2.245 35.5403 3.3575 36.6528C4.4675 37.7653 5.5825 38.4503 6.8975 38.9603C8.1725 39.4553 9.6225 39.7928 11.7525 39.8903C13.8875 39.9853 14.5675 40.0103 20 40.0103C25.4325 40.0103 26.11 39.9853 28.245 39.8903C30.3725 39.7903 31.83 39.4553 33.1025 38.9603C34.437 38.4591 35.6454 37.6715 36.6425 36.6528C37.755 35.5403 38.4375 34.4253 38.95 33.1103C39.4425 31.8378 39.78 30.3853 39.88 28.2553C39.975 26.1228 40 25.4428 40 20.0103C40 14.5778 39.975 13.8978 39.88 11.7628C39.78 9.63525 39.4425 8.18025 38.95 6.91025C38.4492 5.57486 37.6615 4.36561 36.6425 3.36775C35.6446 2.34875 34.4354 1.56107 33.1 1.06025C31.825 0.565254 30.37 0.227754 28.2425 0.130254C26.1075 0.0352539 25.43 0.0102539 19.995 0.0102539H20ZM18.2075 3.61525H20.0025C25.3425 3.61525 25.975 3.63275 28.0825 3.73025C30.0325 3.81775 31.0925 4.14525 31.7975 4.41775C32.73 4.78025 33.3975 5.21525 34.0975 5.91525C34.7975 6.61525 35.23 7.28025 35.5925 8.21525C35.8675 8.91775 36.1925 9.97775 36.28 11.9278C36.3775 14.0353 36.3975 14.6678 36.3975 20.0053C36.3975 25.3428 36.3775 25.9778 36.28 28.0853C36.1925 30.0353 35.865 31.0928 35.5925 31.7978C35.2696 32.665 34.7581 33.4497 34.095 34.0953C33.395 34.7953 32.73 35.2278 31.795 35.5903C31.095 35.8653 30.035 36.1903 28.0825 36.2803C25.975 36.3753 25.3425 36.3978 20.0025 36.3978C14.6625 36.3978 14.0275 36.3753 11.92 36.2803C9.97 36.1903 8.9125 35.8653 8.2075 35.5903C7.33958 35.2684 6.554 34.7578 5.9075 34.0953C5.24318 33.4493 4.73082 32.6636 4.4075 31.7953C4.135 31.0928 3.8075 30.0328 3.72 28.0828C3.625 25.9753 3.605 25.3428 3.605 20.0003C3.605 14.6578 3.625 14.0303 3.72 11.9228C3.81 9.97275 4.135 8.91275 4.41 8.20775C4.7725 7.27525 5.2075 6.60775 5.9075 5.90775C6.6075 5.20775 7.2725 4.77525 8.2075 4.41275C8.9125 4.13775 9.97 3.81275 11.92 3.72275C13.765 3.63775 14.48 3.61275 18.2075 3.61025V3.61525ZM30.6775 6.93525C30.3623 6.93525 30.0502 6.99733 29.7591 7.11794C29.4679 7.23855 29.2033 7.41534 28.9804 7.6382C28.7576 7.86106 28.5808 8.12563 28.4602 8.41681C28.3396 8.708 28.2775 9.02008 28.2775 9.33525C28.2775 9.65043 28.3396 9.96251 28.4602 10.2537C28.5808 10.5449 28.7576 10.8094 28.9804 11.0323C29.2033 11.2552 29.4679 11.432 29.7591 11.5526C30.0502 11.6732 30.3623 11.7353 30.6775 11.7353C31.314 11.7353 31.9245 11.4824 32.3746 11.0323C32.8246 10.5822 33.0775 9.97177 33.0775 9.33525C33.0775 8.69873 32.8246 8.08828 32.3746 7.6382C31.9245 7.18811 31.314 6.93525 30.6775 6.93525ZM20.0025 9.74025C18.6402 9.719 17.2872 9.96897 16.0224 10.4756C14.7577 10.9822 13.6063 11.7354 12.6354 12.6913C11.6645 13.6472 10.8934 14.7867 10.3671 16.0434C9.8408 17.3001 9.56975 18.649 9.56975 20.0115C9.56975 21.374 9.8408 22.7229 10.3671 23.9796C10.8934 25.2363 11.6645 26.3758 12.6354 27.3317C13.6063 28.2876 14.7577 29.0408 16.0224 29.5474C17.2872 30.054 18.6402 30.304 20.0025 30.2828C22.6989 30.2407 25.2705 29.14 27.1624 27.2184C29.0544 25.2967 30.1148 22.7082 30.1147 20.0115C30.1148 17.3148 29.0544 14.7263 27.1624 12.8046C25.2705 10.883 22.6989 9.78232 20.0025 9.74025ZM20.0025 13.3428C20.8781 13.3428 21.7451 13.5152 22.554 13.8503C23.363 14.1854 24.098 14.6765 24.7171 15.2956C25.3363 15.9148 25.8274 16.6498 26.1625 17.4587C26.4975 18.2677 26.67 19.1347 26.67 20.0103C26.67 20.8858 26.4975 21.7529 26.1625 22.5618C25.8274 23.3707 25.3363 24.1058 24.7171 24.7249C24.098 25.344 23.363 25.8351 22.554 26.1702C21.7451 26.5053 20.8781 26.6778 20.0025 26.6778C18.2342 26.6778 16.5383 25.9753 15.2879 24.7249C14.0375 23.4745 13.335 21.7786 13.335 20.0103C13.335 18.2419 14.0375 16.546 15.2879 15.2956C16.5383 14.0452 18.2342 13.3428 20.0025 13.3428Z" fill="#F3F3F3"/>
</g>
<defs>
<clipPath id="clip0_122_325">
<rect width="40" height="40" fill="white" transform="translate(0 0.0102539)"/>
</clipPath>
</defs>
</svg>
