<svg width="156" height="51" viewBox="0 0 156 51" fill="none" xmlns="http://www.w3.org/2000/svg">
<g id="Layer 1">
<g id="Group">
<g id="Group_2">
<path id="Vector" d="M12.0076 48.9367H1.04889C1.42106 48.4363 1.72556 47.6217 1.96578 46.4931C2.21615 45.3542 2.34472 44.412 2.34472 43.6665V38.4135C2.34472 38.0235 2.21953 37.5506 1.96578 36.9984C1.72556 36.4359 1.42106 36.0251 1.04889 35.7697C1.42106 35.5247 1.72556 35.1209 1.96578 34.5583C2.21615 33.9819 2.34472 33.5125 2.34472 33.1432V27.873C2.34472 27.1137 2.21953 26.1715 1.96578 25.0463C1.72556 23.9212 1.42106 23.1067 1.04889 22.6028H12.011C13.7974 22.6028 15.4248 22.9203 16.8898 23.5588C18.3548 24.1835 19.5119 25.0843 20.3645 26.2578C21.2273 27.4312 21.6739 28.8463 21.6975 30.4995C21.6975 32.629 20.9431 34.3995 19.4307 35.8043C20.8957 37.1641 21.6502 38.9001 21.6975 41.0193C21.6975 42.6 21.2611 43.9805 20.3848 45.1678C19.522 46.3413 18.3582 47.2663 16.8932 47.9393C15.4282 48.6019 13.8042 48.9298 12.0144 48.9298L12.0076 48.9367ZM12.0076 33.1432C13.0395 33.1432 13.8312 32.8878 14.3827 32.3736C14.9477 31.8593 15.2286 31.2346 15.2286 30.4995C15.2286 29.7644 14.9714 29.1155 14.4538 28.6254C13.9361 28.1249 13.1207 27.873 12.0042 27.873H8.78325V33.1432H12.0042H12.0076ZM12.0076 43.6665C13.0395 43.6665 13.8312 43.4111 14.3827 42.8968C14.9477 42.3826 15.2286 41.7579 15.2286 41.0227C15.2286 40.2876 14.9714 39.6698 14.4538 39.1693C13.9361 38.6689 13.1207 38.4169 12.0042 38.4169H8.78325V43.6699H12.0042L12.0076 43.6665Z" fill="#1D1613"/>
<path id="Vector_2" d="M45.5401 48.9367H36.449C36.8584 48.4225 37.0614 47.4423 37.0614 45.9996C37.0614 45.154 36.9836 44.3775 36.8279 43.6665H31.6615C31.4924 44.3775 31.4112 45.1644 31.4112 46.0341C31.4112 47.4664 31.6142 48.4328 32.0236 48.9367H22.9325C23.3283 48.4363 23.7851 47.639 24.2993 46.5484C24.8271 45.4474 25.2162 44.4844 25.47 43.6665L26.9823 38.4894C27.0534 38.2582 27.0906 37.9752 27.0906 37.6438C27.0906 36.7258 26.891 36.0389 26.4951 35.5868C26.9282 35.4522 27.3342 35.1588 27.7199 34.7067C28.1022 34.2408 28.356 33.8197 28.4744 33.4401L30.112 27.8764C30.5315 26.4338 30.7413 25.1947 30.7413 24.1662C30.7413 23.4794 30.6161 22.9617 30.3623 22.6062H38.1035C37.8531 22.9721 37.7245 23.4863 37.7245 24.149C37.7245 25.1878 37.9411 26.4303 38.3741 27.8764L39.9948 33.4401C40.1267 33.8197 40.3805 34.2408 40.7492 34.7067C41.1316 35.1588 41.5409 35.4522 41.974 35.5868C41.5782 36.0527 41.3785 36.743 41.3785 37.6611C41.3785 37.9683 41.4158 38.2409 41.4868 38.486L43.0161 43.663C43.2665 44.4844 43.6522 45.4439 44.1664 46.5449C44.6841 47.6355 45.1375 48.4294 45.5333 48.9333L45.5401 48.9367ZM35.5321 38.4135L34.2363 33.1432L32.9574 38.4135H35.5321Z" fill="#1D1613"/>
<path id="Vector_3" d="M70.0356 48.9367H62.2776L55.8323 35.7732V43.6699C55.8323 44.4154 55.9507 45.3576 56.1909 46.4966C56.4413 47.6217 56.7559 48.4363 57.1281 48.9402H48.0911C48.4633 48.4397 48.7678 47.6252 49.008 46.4966C49.2584 45.3576 49.387 44.4154 49.387 43.6699V38.4169C49.387 38.0269 49.2618 37.5541 49.008 37.0019C48.7678 36.4393 48.4633 36.0286 48.0911 35.7732C48.4633 35.5281 48.7678 35.1243 49.008 34.5618C49.2584 33.9854 49.387 33.516 49.387 33.1467V27.8765C49.387 27.1171 49.2618 26.1749 49.008 25.0498C48.7678 23.9246 48.4633 23.1101 48.0911 22.6062H55.8323L62.2776 35.7697V27.873C62.2776 27.1137 62.1592 26.1715 61.9189 25.0463C61.6923 23.9212 61.3844 23.1067 61.002 22.6028H70.039C69.6567 23.1032 69.342 23.9177 69.1018 25.0463C68.8616 26.1715 68.7432 27.1137 68.7432 27.873V33.1432C68.7432 33.5091 68.865 33.9819 69.1018 34.5583C69.342 35.1209 69.6533 35.5247 70.039 35.7697C69.6567 36.0251 69.342 36.4358 69.1018 36.9984C68.8616 37.5506 68.7432 38.02 68.7432 38.4135V43.6665C68.7432 44.412 68.865 45.3542 69.1018 46.4931C69.342 47.6183 69.6533 48.4328 70.039 48.9367H70.0356Z" fill="#1D1613"/>
<path id="Vector_4" d="M84.2728 48.9367H73.3107C73.6829 48.4363 73.9874 47.6217 74.2276 46.4931C74.478 45.3542 74.6066 44.412 74.6066 43.6665V38.4135C74.6066 38.0235 74.4814 37.5506 74.2276 36.9984C73.9874 36.4359 73.6829 36.0251 73.3107 35.7697C73.6829 35.5247 73.9874 35.1209 74.2276 34.5583C74.478 33.9819 74.6066 33.5125 74.6066 33.1432V27.873C74.6066 27.1137 74.4814 26.1715 74.2276 25.0463C73.9874 23.9212 73.6829 23.1067 73.3107 22.6028H84.2728C86.0592 22.6028 87.6866 22.9652 89.1516 23.6865C90.6166 24.3975 91.7805 25.4536 92.6433 26.8617C93.5195 28.2561 93.956 29.9818 93.956 32.0388V33.2882C93.9932 33.7058 94.1252 34.1683 94.3518 34.6826C94.5785 35.183 94.8729 35.5454 95.2349 35.7663C94.8763 35.9975 94.5819 36.3668 94.3518 36.8673C94.1252 37.3574 93.9932 37.8233 93.956 38.2616V39.511C93.956 41.568 93.5195 43.3006 92.6433 44.7088C91.7805 46.1031 90.6166 47.1558 89.1516 47.8668C87.6866 48.5778 86.0626 48.9333 84.2728 48.9333V48.9367ZM84.2728 43.6665C84.9935 43.6665 85.5856 43.4594 86.0559 43.0418C86.5363 42.6138 86.8949 42.0443 87.1351 41.3333C87.3754 40.612 87.4938 39.8078 87.4938 38.9277V38.4135C87.4938 38.0235 87.3754 37.5506 87.1351 36.9984C86.8949 36.4359 86.5837 36.0251 86.198 35.7697C86.5837 35.5247 86.8949 35.1209 87.1351 34.5583C87.3754 33.9819 87.4938 33.5125 87.4938 33.1432C87.4938 31.9077 87.3923 30.9344 87.1893 30.2234C86.7224 28.6565 85.748 27.873 84.2728 27.873H81.0519V33.1778C81.0755 33.5954 81.2007 34.0717 81.4308 34.6101C81.671 35.1347 81.9755 35.5212 82.3477 35.7663C81.9755 36.0217 81.671 36.422 81.4308 36.9605C81.2041 37.4851 81.0755 37.9579 81.0519 38.3755V43.663H84.2728V43.6665Z" fill="#1D1613"/>
<path id="Vector_5" d="M107.023 48.9367H97.9856C98.3577 48.4363 98.6622 47.6217 98.9025 46.4931C99.1528 45.3542 99.2814 44.412 99.2814 43.6665V38.4135C99.2814 38.0235 99.1562 37.5506 98.9025 36.9984C98.6622 36.4359 98.3577 36.0251 97.9856 35.7697C98.3577 35.5247 98.6622 35.1209 98.9025 34.5583C99.1528 33.9819 99.2814 33.5125 99.2814 33.1432V27.873C99.2814 27.1137 99.1562 26.1715 98.9025 25.0463C98.6622 23.9212 98.3577 23.1067 97.9856 22.6028H107.023C106.65 23.1032 106.339 23.9177 106.085 25.0463C105.845 26.1715 105.727 27.1137 105.727 27.873V33.1432C105.727 33.5091 105.848 33.9819 106.085 34.5583C106.336 35.1209 106.65 35.5247 107.023 35.7697C106.65 36.0251 106.339 36.4359 106.085 36.9984C105.845 37.5506 105.727 38.02 105.727 38.4135V43.6665C105.727 44.412 105.848 45.3542 106.085 46.4931C106.336 47.6183 106.65 48.4328 107.023 48.9367Z" fill="#1D1613"/>
<path id="Vector_6" d="M125.705 48.9367H116.668C117.041 48.4363 117.345 47.6217 117.585 46.4931C117.836 45.3542 117.964 44.412 117.964 43.6665V38.4135C117.964 38.0235 117.839 37.5506 117.585 36.9984C117.345 36.4359 117.041 36.0251 116.668 35.7697C117.041 35.5247 117.345 35.1209 117.585 34.5583C117.836 33.9819 117.964 33.5125 117.964 33.1432V27.873H116.668C115.938 27.873 115.092 28.0007 114.131 28.2596C113.184 28.5046 112.47 28.8152 111.989 29.1949L109.577 22.6028H132.797L130.368 29.1949C129.901 28.8152 129.19 28.5046 128.243 28.2596C127.296 28.0042 126.45 27.873 125.705 27.873H124.41V33.1432C124.41 33.5091 124.528 33.9819 124.768 34.5583C125.008 35.1209 125.32 35.5247 125.705 35.7697C125.323 36.0251 125.008 36.4359 124.768 36.9984C124.528 37.5506 124.41 38.02 124.41 38.4135V43.6665C124.41 44.412 124.528 45.3542 124.768 46.4931C125.008 47.6183 125.32 48.4328 125.705 48.9367Z" fill="#1D1613"/>
<path id="Vector_7" d="M143.993 48.9367C142.193 48.9367 140.562 48.5812 139.097 47.8702C137.632 47.1593 136.468 46.1066 135.605 44.7122C134.742 43.3041 134.309 41.5715 134.309 39.5145V38.4135C134.309 38.0235 134.184 37.5506 133.93 36.9984C133.69 36.4358 133.386 36.0251 133.014 35.7697C133.386 35.5247 133.69 35.1209 133.93 34.5583C134.181 33.9819 134.309 33.5125 134.309 33.1432V32.0423C134.309 29.9852 134.742 28.2596 135.605 26.8652C136.468 25.457 137.632 24.3975 139.097 23.6899C140.562 22.9686 142.193 22.6062 143.993 22.6062C145.792 22.6062 147.4 22.9686 148.851 23.6899C150.316 24.4009 151.48 25.457 152.343 26.8652C153.219 28.2596 153.655 29.9852 153.655 32.0423V33.2916C153.693 33.7093 153.825 34.1717 154.051 34.686C154.291 35.1865 154.593 35.5488 154.951 35.7697C154.593 36.001 154.291 36.3703 154.051 36.8707C153.825 37.3608 153.693 37.8267 153.655 38.2651V39.5145C153.655 41.5715 153.219 43.3041 152.343 44.7122C151.48 46.1066 150.316 47.1593 148.851 47.8702C147.4 48.5812 145.779 48.9367 143.993 48.9367ZM143.993 43.6665C144.7 43.6665 145.288 43.4594 145.755 43.0418C146.236 42.6138 146.594 42.0443 146.835 41.3333C147.075 40.612 147.193 39.8078 147.193 38.9277V38.4135C147.193 38.0235 147.075 37.5506 146.835 36.9984C146.608 36.4358 146.3 36.0251 145.918 35.7697C146.3 35.5247 146.608 35.1209 146.835 34.5583C147.075 33.9819 147.193 33.5125 147.193 33.1432C147.193 31.9076 147.092 30.9344 146.889 30.2234C146.422 28.6565 145.454 27.873 143.989 27.873C142.524 27.873 141.54 28.6565 141.073 30.2234C140.856 30.9447 140.748 31.9318 140.748 33.1812C140.772 33.5988 140.897 34.0751 141.127 34.6135C141.367 35.1381 141.672 35.5247 142.044 35.7697C141.672 36.0251 141.367 36.4255 141.127 36.9639C140.9 37.4885 140.772 37.9614 140.748 38.379V38.9312C140.748 39.8113 140.866 40.6155 141.107 41.3368C141.347 42.0478 141.705 42.6173 142.186 43.0452C142.666 43.4628 143.265 43.6699 143.986 43.6699L143.993 43.6665Z" fill="#1D1613"/>
<path id="Vector_8" fill-rule="evenodd" clip-rule="evenodd" d="M12.0076 50.0032H1.04889C0.653037 50.0032 0.287634 49.7754 0.1117 49.4095C-0.064235 49.0471 -0.027018 48.6123 0.213201 48.2878C0.521086 47.8737 0.744388 47.1903 0.944006 46.2619V46.255C1.17408 45.2127 1.29588 44.3464 1.29588 43.663V38.41C1.29588 38.1408 1.18761 37.8267 1.01506 37.4471C1.01167 37.4402 1.00829 37.4298 1.00491 37.4229C0.856039 37.0778 0.690254 36.8086 0.460186 36.6498C0.169217 36.4531 -0.00333451 36.1183 4.88497e-05 35.7594C0.00343221 35.4004 0.18275 35.0691 0.480486 34.8724C0.703788 34.7274 0.862806 34.4686 1.00491 34.1338C1.00491 34.1338 1.00491 34.1269 1.00829 34.1234C1.18423 33.7231 1.29588 33.4021 1.29588 33.1467V27.8764C1.29588 27.1827 1.17408 26.3199 0.944006 25.2879C0.944006 25.2845 0.944006 25.281 0.944006 25.2776C0.744388 24.3491 0.521086 23.6658 0.213201 23.2516C-0.027018 22.9272 -0.0676183 22.4957 0.1117 22.1299C0.287634 21.7675 0.653037 21.5363 1.04889 21.5363H12.011C13.9496 21.5363 15.709 21.8849 17.2958 22.5751C18.9435 23.2792 20.2427 24.2974 21.2036 25.6192C22.1949 26.9687 22.7159 28.5874 22.743 30.4822C22.743 30.4891 22.743 30.4926 22.743 30.4995C22.743 32.5634 22.1205 34.3339 20.8855 35.8077C22.0765 37.2331 22.6956 38.9588 22.743 40.9985C22.743 41.0054 22.743 41.0158 22.743 41.0227C22.743 42.8485 22.2321 44.443 21.2171 45.8132C20.2528 47.1247 18.9536 48.1636 17.3195 48.916C17.3195 48.916 17.3161 48.916 17.3127 48.916C15.7225 49.6339 13.953 49.9997 12.011 49.9997L12.0076 50.0032ZM12.0076 48.9367C13.794 48.9367 15.4214 48.6054 16.8864 47.9462C18.3514 47.2731 19.5153 46.3482 20.378 45.1747C21.2543 43.9874 21.6908 42.6034 21.6908 41.0262C21.6434 38.907 20.8855 37.171 19.4239 35.8111C20.9363 34.403 21.6908 32.6359 21.6908 30.5064C21.6671 28.8532 21.2239 27.4416 20.3577 26.2646C19.5051 25.0877 18.348 24.1904 16.883 23.5657C15.418 22.9306 13.794 22.6096 12.0042 22.6096H1.04889C1.42106 23.1101 1.72556 23.9246 1.96578 25.0532C2.21615 26.1784 2.34472 27.1206 2.34472 27.8799V33.1501C2.34472 33.516 2.21953 33.9888 1.96578 34.5652C1.72556 35.1278 1.42106 35.5316 1.04889 35.7766C1.42106 36.032 1.72556 36.4427 1.96578 37.0053C2.21615 37.5575 2.34472 38.0269 2.34472 38.4204V43.6734C2.34472 44.4188 2.21953 45.3611 1.96578 46.5C1.72556 47.6252 1.42106 48.4397 1.04889 48.9436H12.011L12.0076 48.9367ZM12.0076 33.1432H8.78664V27.873H12.0076C13.1241 27.873 13.9395 28.1249 14.4571 28.6254C14.9714 29.1155 15.2319 29.7402 15.2319 30.4995C15.2319 31.2588 14.9511 31.8593 14.3861 32.3736C13.8346 32.8878 13.0429 33.1432 12.011 33.1432H12.0076ZM12.0076 32.0768C12.7283 32.0768 13.2933 31.9421 13.679 31.5832C13.679 31.5832 13.6857 31.5798 13.6857 31.5763C14.0105 31.2795 14.1831 30.924 14.1831 30.4995C14.1831 30.075 14.041 29.6919 13.7433 29.4088C13.7433 29.4088 13.7365 29.4019 13.7331 29.3985C13.3745 29.0499 12.7858 28.9395 12.0076 28.9395H9.83209V32.0733H12.0076V32.0768ZM12.0076 43.6665H8.78664V38.4135H12.0076C13.1241 38.4135 13.9395 38.6654 14.4571 39.1659C14.9714 39.6663 15.2319 40.2876 15.2319 41.0192C15.2319 41.7509 14.9511 42.3791 14.3861 42.8933C13.8346 43.4076 13.0429 43.663 12.011 43.663L12.0076 43.6665ZM12.0076 42.5965C12.7283 42.5965 13.2933 42.4619 13.679 42.1064C13.679 42.1064 13.6857 42.103 13.6857 42.0995C14.0105 41.8027 14.1831 41.4472 14.1831 41.0227C14.1831 40.5982 14.0342 40.2323 13.7331 39.9424C13.3745 39.5938 12.7858 39.4834 12.0076 39.4834H9.83209V42.6H12.0076V42.5965ZM45.5401 50.0032H36.449C36.0464 50.0032 35.6776 49.765 35.505 49.3957C35.3325 49.0264 35.3832 48.5847 35.637 48.2637C35.9483 47.8702 36.0159 47.104 36.0159 45.9996C36.0159 45.5578 35.9922 45.1367 35.9449 44.7364H32.5344C32.4837 45.1436 32.4566 45.5785 32.4566 46.0375C32.4566 47.1247 32.5175 47.8771 32.8288 48.2568C33.0893 48.5743 33.1434 49.0195 32.9709 49.3923C32.7983 49.7685 32.4296 50.0066 32.0236 50.0066H22.9325C22.5298 50.0066 22.1611 49.7719 21.9885 49.3992C21.816 49.0299 21.8633 48.5881 22.1171 48.2671C22.4791 47.8081 22.8885 47.0799 23.3588 46.0859C23.3588 46.0859 23.3588 46.0859 23.3588 46.0824C23.8595 45.0401 24.2283 44.1324 24.4685 43.3558L25.9775 38.1857C25.9775 38.1857 25.9809 38.1753 25.9843 38.1684C26.0282 38.0235 26.0418 37.8509 26.0418 37.6438C26.0418 37.0502 25.9707 36.5911 25.7136 36.2978C25.4768 36.0251 25.3922 35.6489 25.4869 35.3003C25.5816 34.9483 25.8489 34.6722 26.1906 34.5652C26.4545 34.4824 26.6914 34.2856 26.9282 34.0061C27.1989 33.6782 27.3917 33.3883 27.4763 33.1156L29.1105 27.5658C29.4962 26.2405 29.6958 25.105 29.6958 24.1628C29.6958 23.7555 29.6654 23.438 29.5165 23.2274C29.2864 22.903 29.2526 22.4716 29.4319 22.1161C29.6112 21.7572 29.9699 21.5328 30.3657 21.5328H38.1068C38.4959 21.5328 38.8546 21.7537 39.0373 22.1092C39.2166 22.4612 39.1895 22.8892 38.9662 23.2136C38.8173 23.4345 38.7767 23.7486 38.7767 24.1421C38.7767 25.0946 38.9831 26.2336 39.379 27.5589C39.379 27.5589 39.379 27.5624 39.379 27.5658C39.379 27.5658 40.9895 33.0984 40.9895 33.1018C41.091 33.3779 41.2838 33.6782 41.5545 34.0164C41.7845 34.2856 42.018 34.4789 42.2785 34.5583C42.6169 34.6653 42.8808 34.9379 42.9789 35.2865C43.077 35.6351 42.9958 36.0079 42.7623 36.2805C42.5018 36.5842 42.424 37.0536 42.424 37.6542C42.424 37.8474 42.4443 38.02 42.4883 38.1719L44.0142 43.342C44.2544 44.122 44.6198 45.0332 45.1104 46.0755C45.5807 47.0695 45.9901 47.7977 46.3487 48.2568C46.6025 48.5778 46.6498 49.0161 46.4773 49.3888C46.3047 49.7581 45.9359 49.9963 45.5333 49.9963L45.5401 50.0032ZM45.5401 48.9367C45.1442 48.4362 44.6875 47.639 44.1732 46.5483C43.6589 45.4474 43.2732 44.4844 43.0229 43.6665L41.4936 38.4894C41.4225 38.2444 41.3853 37.9682 41.3853 37.6645C41.3853 36.7465 41.5816 36.0562 41.9808 35.5902C41.5477 35.4556 41.1417 35.1623 40.756 34.7101C40.3838 34.2442 40.1335 33.8231 40.0015 33.4435L38.3809 27.8799C37.9478 26.4372 37.7313 25.1913 37.7313 24.1524C37.7313 23.4897 37.8565 22.9789 38.1102 22.6096H30.3691C30.6195 22.9651 30.748 23.4863 30.748 24.1697C30.748 25.1982 30.5383 26.4338 30.1187 27.8799L28.4812 33.4435C28.3628 33.8231 28.109 34.2442 27.7267 34.7101C27.3444 35.1623 26.935 35.4556 26.5019 35.5902C26.8978 36.0424 27.0974 36.7292 27.0974 37.6473C27.0974 37.9786 27.0602 38.2582 26.9891 38.4928L25.4768 43.6699C25.2264 44.4913 24.8339 45.4508 24.3061 46.5518C23.7918 47.6424 23.3351 48.4362 22.9392 48.9401H32.0303C31.6209 48.4397 31.4179 47.4699 31.4179 46.0375C31.4179 45.1678 31.5025 44.3774 31.6683 43.6699H36.8347C36.9903 44.3809 37.0681 45.1574 37.0681 46.003C37.0681 47.4492 36.8651 48.4259 36.4558 48.9401H45.5468L45.5401 48.9367ZM35.5321 38.4135H32.9574L34.2363 33.1432L35.5321 38.4135ZM70.0356 50.0032H62.2776C61.8817 50.0032 61.5163 49.7754 61.3404 49.413L56.8811 40.3014V43.6665C56.8811 44.3533 56.9961 45.2161 57.2161 46.2688C57.4258 47.1972 57.6559 47.8771 57.9638 48.2913C58.204 48.6157 58.2446 49.0471 58.0653 49.413C57.8893 49.7754 57.5239 50.0066 57.1281 50.0066H48.0911C47.6953 50.0066 47.3299 49.7788 47.1539 49.413C46.978 49.0506 47.0152 48.6157 47.2554 48.2913C47.5633 47.8771 47.7866 47.1938 47.9862 46.2653V46.2584C48.2163 45.2161 48.3381 44.3498 48.3381 43.6665V38.4135C48.3381 38.1443 48.2298 37.8302 48.0573 37.4505C48.0539 37.4436 48.0505 37.4333 48.0471 37.4264C47.8983 37.0812 47.7325 36.812 47.5024 36.6533C47.2115 36.4531 47.0389 36.1149 47.0423 35.7559C47.0457 35.397 47.225 35.0656 47.5227 34.8689C47.746 34.724 47.905 34.4651 48.0471 34.1303C48.0471 34.1303 48.0471 34.1234 48.0505 34.12C48.2265 33.7196 48.3381 33.3986 48.3381 33.1432V27.873C48.3381 27.1793 48.2163 26.3164 47.9862 25.2845C47.9862 25.281 47.9862 25.2776 47.9862 25.2741C47.79 24.3457 47.5633 23.6623 47.2554 23.2481C47.0152 22.9237 46.9746 22.4923 47.1539 22.1265C47.3299 21.7641 47.6953 21.5328 48.0911 21.5328H55.8323C56.2281 21.5328 56.5935 21.7606 56.7695 22.123L61.2287 31.2346V27.8695C61.2287 27.1724 61.1137 26.3061 60.8938 25.2672C60.8938 25.2637 60.8938 25.2603 60.8938 25.2568C60.7077 24.3388 60.4878 23.6658 60.1765 23.2551C59.9295 22.9341 59.8855 22.4957 60.0615 22.1299C60.2374 21.7641 60.6028 21.5294 61.002 21.5294H70.039C70.4382 21.5294 70.8036 21.7606 70.9796 22.1299C71.1555 22.4957 71.1115 22.9341 70.8645 23.2551C70.5499 23.6658 70.3232 24.3457 70.127 25.2672C69.907 26.3026 69.792 27.1689 69.792 27.8695V33.1398C69.792 33.3986 69.8969 33.7265 70.0694 34.1338C70.2115 34.4616 70.3706 34.7136 70.5972 34.8586C70.8984 35.0518 71.0844 35.3901 71.0878 35.7525C71.0912 36.1183 70.9153 36.4565 70.6142 36.6567C70.3807 36.812 70.2115 37.0778 70.0627 37.4195V37.4264C69.8969 37.8095 69.792 38.1339 69.792 38.4066V43.6595C69.792 44.3464 69.907 45.2127 70.127 46.2619C70.3232 47.1834 70.5499 47.8599 70.8645 48.274C71.1115 48.595 71.1555 49.0333 70.9796 49.3992C70.8036 49.765 70.4382 49.9997 70.039 49.9997L70.0356 50.0032ZM70.0356 48.9367C69.6533 48.4362 69.3386 47.6217 69.0984 46.4931C68.8582 45.3542 68.7398 44.4119 68.7398 43.6665V38.4135C68.7398 38.0235 68.8616 37.5506 69.0984 36.9984C69.3386 36.4358 69.6499 36.0251 70.0356 35.7697C69.6533 35.5247 69.3386 35.1209 69.0984 34.5583C68.8582 33.9819 68.7398 33.5125 68.7398 33.1432V27.873C68.7398 27.1137 68.8616 26.1715 69.0984 25.0463C69.3386 23.9212 69.6499 23.1066 70.0356 22.6027H60.9986C61.3844 23.1032 61.6889 23.9177 61.9155 25.0463C62.1558 26.1715 62.2742 27.1137 62.2742 27.873V35.7697L55.8289 22.6062H48.0877C48.4599 23.1066 48.7644 23.9212 49.0046 25.0498C49.255 26.1749 49.3836 27.1171 49.3836 27.8764V33.1467C49.3836 33.5125 49.2584 33.9854 49.0046 34.5617C48.7644 35.1243 48.4599 35.5281 48.0877 35.7732C48.4599 36.0286 48.7644 36.4393 49.0046 37.0019C49.255 37.5541 49.3836 38.0235 49.3836 38.4169V43.6699C49.3836 44.4154 49.2584 45.3576 49.0046 46.4966C48.7644 47.6217 48.4599 48.4362 48.0877 48.9401H57.1247C56.7525 48.4397 56.4413 47.6252 56.1875 46.4966C55.9473 45.3576 55.8289 44.4154 55.8289 43.6699V35.7732L62.2742 48.9367H70.0322H70.0356ZM84.2728 50.0032H73.3107C72.9148 50.0032 72.5494 49.7754 72.3735 49.4095C72.1976 49.0471 72.2348 48.6123 72.475 48.2878C72.7829 47.8737 73.0062 47.1903 73.2058 46.2619V46.255C73.4359 45.2127 73.5577 44.3464 73.5577 43.663V38.41C73.5577 38.1408 73.4494 37.8267 73.2769 37.4471C73.2735 37.4402 73.2701 37.4298 73.2667 37.4229C73.1179 37.0778 72.9521 36.8086 72.722 36.6498C72.431 36.4496 72.2585 36.1114 72.2619 35.7525C72.2652 35.3935 72.4446 35.0622 72.7423 34.8655C72.9656 34.7205 73.1246 34.4616 73.2667 34.1269C73.2667 34.1269 73.2667 34.12 73.2701 34.1165C73.446 33.7162 73.5577 33.3952 73.5577 33.1398V27.8695C73.5577 27.1758 73.4359 26.313 73.2058 25.281C73.2058 25.2776 73.2058 25.2741 73.2058 25.2707C73.0096 24.3422 72.7829 23.6589 72.475 23.2447C72.2348 22.9203 72.1942 22.4888 72.3735 22.123C72.5494 21.7606 72.9148 21.5294 73.3107 21.5294H84.2728C86.2284 21.5294 88.0046 21.9297 89.605 22.7166C91.2493 23.5139 92.5586 24.7046 93.5297 26.2854C94.5007 27.835 95.0048 29.7505 95.0048 32.0353V33.233C95.0386 33.5332 95.1435 33.868 95.3059 34.2373C95.4311 34.5134 95.5766 34.7274 95.7728 34.8482C96.0841 35.038 96.277 35.3797 96.2803 35.7525C96.2837 36.1218 96.101 36.4703 95.7931 36.6671C95.5868 36.8017 95.4311 37.026 95.3026 37.3159C95.3026 37.3159 95.3026 37.3228 95.2992 37.3263C95.1368 37.6714 95.0353 37.9993 95.0048 38.3134V39.511C95.0048 41.7958 94.5007 43.7148 93.5297 45.2782C92.5586 46.8486 91.2493 48.0324 89.6016 48.8297C88.0013 49.6063 86.2284 49.9997 84.2728 49.9997V50.0032ZM84.2728 48.9367C86.0592 48.9367 87.6866 48.5812 89.1516 47.8702C90.6166 47.1592 91.7805 46.1066 92.6432 44.7122C93.5195 43.3041 93.956 41.5715 93.956 39.5145V38.2651C93.9932 37.8233 94.1251 37.3608 94.3518 36.8707C94.5785 36.3703 94.8729 36.001 95.2349 35.7697C94.8763 35.5488 94.5819 35.1899 94.3518 34.686C94.1251 34.1717 93.9932 33.7058 93.956 33.2916V32.0422C93.956 29.9852 93.5195 28.2595 92.6432 26.8652C91.7805 25.457 90.6166 24.3975 89.1516 23.6899C87.6866 22.9686 86.0626 22.6062 84.2728 22.6062H73.3107C73.6829 23.1066 73.9874 23.9212 74.2276 25.0498C74.478 26.1749 74.6065 27.1171 74.6065 27.8764V33.1467C74.6065 33.5125 74.4813 33.9854 74.2276 34.5617C73.9874 35.1243 73.6829 35.5281 73.3107 35.7732C73.6829 36.0286 73.9874 36.4393 74.2276 37.0019C74.478 37.5541 74.6065 38.0235 74.6065 38.4169V43.6699C74.6065 44.4154 74.4813 45.3576 74.2276 46.4966C73.9874 47.6217 73.6829 48.4362 73.3107 48.9401H84.2728V48.9367ZM84.2728 43.6665H81.0518V38.379C81.0755 37.9613 81.2007 37.4919 81.4308 36.9639C81.671 36.4255 81.9755 36.0286 82.3477 35.7697C81.9755 35.5247 81.671 35.1381 81.4308 34.6135C81.2041 34.0751 81.0755 33.5988 81.0518 33.1812V27.8764H84.2728C85.7479 27.8764 86.7224 28.6599 87.1893 30.2268C87.3923 30.9378 87.4938 31.9111 87.4938 33.1467C87.4938 33.5125 87.3753 33.9854 87.1351 34.5617C86.8949 35.1243 86.5836 35.5281 86.1979 35.7732C86.5836 36.0286 86.8949 36.4393 87.1351 37.0019C87.3753 37.5541 87.4938 38.0235 87.4938 38.4169V38.9312C87.4938 39.8113 87.3753 40.6154 87.1351 41.3368C86.8949 42.0478 86.5363 42.6172 86.0558 43.0452C85.5889 43.4628 84.9934 43.6699 84.2728 43.6699V43.6665ZM84.2728 42.5965C84.7126 42.5965 85.0814 42.4895 85.3656 42.2341C85.7141 41.9235 85.9679 41.5024 86.1438 40.9847C86.3502 40.3669 86.4483 39.6801 86.4483 38.9243V38.41C86.4483 38.1374 86.3468 37.8129 86.1776 37.4298C86.1776 37.4298 86.1776 37.4264 86.1742 37.4229C86.0288 37.0812 85.8562 36.8155 85.6228 36.6602C85.325 36.46 85.1457 36.1183 85.1491 35.7559C85.1525 35.3935 85.3385 35.0553 85.6397 34.862C85.8663 34.717 86.0288 34.4651 86.1709 34.1303C86.34 33.7265 86.4449 33.3986 86.4449 33.1398C86.4449 32.0353 86.3637 31.1621 86.181 30.5236C85.8697 29.4882 85.2472 28.9395 84.2694 28.9395H82.0939V33.1432C82.1176 33.4435 82.2191 33.7852 82.3815 34.1786C82.5236 34.4858 82.6894 34.724 82.9093 34.8689C83.2037 35.0622 83.3864 35.397 83.3897 35.7559C83.3931 36.1149 83.2206 36.4496 82.9296 36.6533C82.6995 36.812 82.527 37.0674 82.3781 37.4022C82.2157 37.7784 82.1142 38.1097 82.0939 38.4135V42.5965H84.2694H84.2728ZM107.023 50.0032H97.9855C97.5897 50.0032 97.2243 49.7754 97.0484 49.4095C96.8724 49.0471 96.9097 48.6123 97.1499 48.2878C97.4578 47.8737 97.681 47.1903 97.8807 46.2619V46.255C98.1107 45.2127 98.2325 44.3464 98.2325 43.663V38.41C98.2325 38.1408 98.1243 37.8267 97.9517 37.4471C97.9483 37.4402 97.945 37.4298 97.9416 37.4229C97.7927 37.0778 97.6269 36.8086 97.3969 36.6498C97.1059 36.4496 96.9333 36.1114 96.9367 35.7525C96.9401 35.3935 97.1194 35.0622 97.4171 34.8655C97.6404 34.7205 97.7995 34.4616 97.9416 34.1269C97.9416 34.1269 97.9416 34.12 97.945 34.1165C98.1209 33.7162 98.2325 33.3952 98.2325 33.1398V27.8695C98.2325 27.1758 98.1107 26.313 97.8807 25.281C97.8807 25.2776 97.8807 25.2741 97.8807 25.2707C97.6844 24.3422 97.4578 23.6589 97.1499 23.2447C96.9097 22.9203 96.869 22.4888 97.0484 22.123C97.2243 21.7606 97.5897 21.5294 97.9855 21.5294H107.023C107.418 21.5294 107.784 21.7572 107.96 22.123C108.136 22.4854 108.098 22.9203 107.858 23.2447C107.55 23.6589 107.317 24.3422 107.11 25.2741C106.891 26.3095 106.776 27.1724 106.776 27.8695V33.1398C106.776 33.3986 106.88 33.7196 107.05 34.1269C107.202 34.4616 107.368 34.7205 107.591 34.8655C107.885 35.0587 108.065 35.3935 108.071 35.7525C108.075 36.1114 107.902 36.4462 107.611 36.6498C107.378 36.812 107.202 37.0812 107.043 37.4367C106.877 37.8164 106.776 38.1374 106.776 38.41V43.663C106.776 44.3498 106.891 45.2127 107.11 46.2653C107.32 47.1938 107.55 47.8737 107.858 48.2878C108.098 48.6123 108.139 49.0437 107.96 49.4095C107.784 49.7719 107.418 50.0032 107.023 50.0032ZM107.023 48.9367C106.65 48.4362 106.339 47.6217 106.085 46.4931C105.845 45.3542 105.727 44.4119 105.727 43.6665V38.4135C105.727 38.0235 105.848 37.5506 106.085 36.9984C106.336 36.4358 106.65 36.0251 107.023 35.7697C106.65 35.5247 106.339 35.1209 106.085 34.5583C105.845 33.9819 105.727 33.5125 105.727 33.1432V27.873C105.727 27.1137 105.848 26.1715 106.085 25.0463C106.336 23.9212 106.65 23.1066 107.023 22.6027H97.9855C98.3577 23.1032 98.6622 23.9177 98.9025 25.0463C99.1528 26.1715 99.2814 27.1137 99.2814 27.873V33.1432C99.2814 33.5091 99.1562 33.9819 98.9025 34.5583C98.6622 35.1209 98.3577 35.5247 97.9855 35.7697C98.3577 36.0251 98.6622 36.4358 98.9025 36.9984C99.1528 37.5506 99.2814 38.02 99.2814 38.4135V43.6665C99.2814 44.4119 99.1562 45.3542 98.9025 46.4931C98.6622 47.6183 98.3577 48.4328 97.9855 48.9367H107.023ZM125.705 50.0032H116.668C116.273 50.0032 115.907 49.7754 115.731 49.4095C115.555 49.0471 115.593 48.6123 115.833 48.2878C116.141 47.8737 116.364 47.1903 116.564 46.2619V46.255C116.794 45.2127 116.915 44.3464 116.915 43.663V38.41C116.915 38.1408 116.807 37.8267 116.635 37.4471C116.631 37.4402 116.628 37.4298 116.624 37.4229C116.476 37.0778 116.31 36.8086 116.08 36.6498C115.789 36.4496 115.616 36.1114 115.62 35.7525C115.623 35.3935 115.802 35.0622 116.1 34.8655C116.323 34.7205 116.482 34.4616 116.624 34.1269C116.624 34.1269 116.624 34.12 116.628 34.1165C116.804 33.7162 116.915 33.3952 116.915 33.1398V28.9395H116.665C116.009 28.9395 115.254 29.0603 114.391 29.2915C114.391 29.2915 114.385 29.2915 114.381 29.2915C113.607 29.4917 113.014 29.7264 112.625 30.037C112.361 30.2441 112.016 30.3131 111.698 30.2199C111.377 30.1267 111.12 29.8851 111.005 29.5676L108.592 22.9755C108.474 22.6476 108.518 22.2818 108.714 21.9918C108.91 21.7054 109.232 21.5328 109.574 21.5328H132.794C133.139 21.5328 133.46 21.7054 133.653 21.9918C133.849 22.2818 133.893 22.6476 133.771 22.9755L131.342 29.5676C131.224 29.8886 130.963 30.1302 130.642 30.2199C130.32 30.3097 129.972 30.2406 129.711 30.0266C129.332 29.7195 128.75 29.4882 127.982 29.288C127.979 29.288 127.976 29.288 127.972 29.288C127.123 29.0568 126.369 28.9395 125.702 28.9395H125.452V33.1398C125.452 33.3986 125.557 33.7265 125.729 34.1338C125.871 34.4616 126.03 34.7136 126.257 34.8586C126.558 35.0518 126.744 35.3901 126.751 35.7525C126.754 36.1183 126.575 36.4565 126.277 36.6567C126.044 36.812 125.875 37.0778 125.726 37.4195C125.726 37.4195 125.726 37.4264 125.722 37.4264C125.557 37.8095 125.452 38.1339 125.452 38.4066V43.6595C125.452 44.3464 125.567 45.2127 125.787 46.2619C125.983 47.1834 126.21 47.8599 126.524 48.274C126.771 48.595 126.815 49.0333 126.639 49.3992C126.463 49.765 126.098 49.9997 125.699 49.9997L125.705 50.0032ZM125.705 48.9367C125.323 48.4362 125.008 47.6217 124.768 46.4931C124.528 45.3542 124.41 44.4119 124.41 43.6665V38.4135C124.41 38.0235 124.528 37.5506 124.768 36.9984C125.008 36.4358 125.32 36.0251 125.705 35.7697C125.323 35.5247 125.008 35.1209 124.768 34.5583C124.528 33.9819 124.41 33.5125 124.41 33.1432V27.873H125.705C126.45 27.873 127.296 28.0007 128.243 28.2595C129.19 28.5046 129.897 28.8152 130.368 29.1949L132.797 22.6027H109.577L111.989 29.1949C112.47 28.8152 113.184 28.5046 114.131 28.2595C115.092 28.0041 115.938 27.873 116.668 27.873H117.964V33.1432C117.964 33.5091 117.839 33.9819 117.585 34.5583C117.345 35.1209 117.041 35.5247 116.668 35.7697C117.041 36.0251 117.345 36.4358 117.585 36.9984C117.836 37.5506 117.964 38.02 117.964 38.4135V43.6665C117.964 44.4119 117.839 45.3542 117.585 46.4931C117.345 47.6183 117.041 48.4328 116.668 48.9367H125.705ZM143.992 50.0032C142.027 50.0032 140.247 49.6097 138.647 48.8332C136.999 48.0359 135.69 46.8521 134.719 45.2817C134.719 45.2817 134.719 45.2817 134.719 45.2782C133.761 43.7148 133.264 41.7993 133.264 39.5145V38.4135C133.264 38.1443 133.156 37.8302 132.983 37.4505C132.98 37.4436 132.976 37.4333 132.973 37.4264C132.824 37.0812 132.658 36.812 132.428 36.6533C132.137 36.4531 131.965 36.1149 131.968 35.7559C131.971 35.397 132.151 35.0656 132.448 34.8689C132.672 34.724 132.831 34.4651 132.973 34.1303C132.973 34.1303 132.973 34.1234 132.976 34.12C133.152 33.7196 133.264 33.3986 133.264 33.1432V32.0422C133.264 29.7574 133.761 27.8454 134.722 26.2957C135.693 24.715 137.002 23.5243 138.647 22.7235C140.247 21.9332 142.03 21.5363 143.996 21.5363C145.962 21.5363 147.721 21.9366 149.311 22.727C150.955 23.5243 152.261 24.715 153.232 26.2957C154.203 27.8454 154.708 29.7609 154.708 32.0457V33.2433C154.741 33.5436 154.843 33.8715 155.005 34.2408C155.141 34.5203 155.293 34.7343 155.496 34.8586C155.807 35.0484 156 35.3901 156.003 35.7628C156.007 36.1321 155.824 36.4807 155.516 36.6774C155.303 36.8155 155.141 37.0433 154.999 37.3435C154.84 37.6852 154.738 38.0097 154.708 38.3237V39.5214C154.708 41.8062 154.203 43.7251 153.232 45.2886C152.261 46.859 150.952 48.0428 149.308 48.8401C147.721 49.6166 145.951 50.0101 143.996 50.0101L143.992 50.0032ZM143.992 48.9367C145.779 48.9367 147.4 48.5812 148.851 47.8702C150.316 47.1592 151.48 46.1066 152.343 44.7122C153.219 43.3041 153.655 41.5715 153.655 39.5145V38.2651C153.693 37.8233 153.825 37.3608 154.051 36.8707C154.291 36.3703 154.593 36.001 154.951 35.7697C154.593 35.5488 154.291 35.1899 154.051 34.686C153.825 34.1717 153.693 33.7058 153.655 33.2916V32.0422C153.655 29.9852 153.219 28.2595 152.343 26.8652C151.48 25.457 150.316 24.3975 148.851 23.6899C147.4 22.9686 145.779 22.6062 143.992 22.6062C142.206 22.6062 140.562 22.9686 139.097 23.6899C137.632 24.4009 136.468 25.457 135.605 26.8652C134.742 28.2595 134.309 29.9852 134.309 32.0422V33.1432C134.309 33.5091 134.184 33.9819 133.93 34.5583C133.69 35.1209 133.386 35.5247 133.013 35.7697C133.386 36.0251 133.69 36.4358 133.93 36.9984C134.181 37.5506 134.309 38.02 134.309 38.4135V39.5145C134.309 41.5715 134.742 43.3041 135.605 44.7122C136.468 46.1066 137.632 47.1592 139.097 47.8702C140.562 48.5812 142.193 48.9367 143.992 48.9367ZM143.992 43.6665C143.272 43.6665 142.673 43.4594 142.193 43.0418C141.712 42.6138 141.353 42.0443 141.113 41.3333C140.873 40.612 140.755 39.8078 140.755 38.9277V38.3755C140.778 37.9579 140.903 37.4885 141.134 36.9604C141.374 36.422 141.678 36.0251 142.05 35.7663C141.678 35.5212 141.374 35.1347 141.134 34.6101C140.907 34.0716 140.778 33.5954 140.755 33.1777C140.755 31.9283 140.863 30.9447 141.079 30.2199C141.546 28.653 142.521 27.8695 143.996 27.8695C145.471 27.8695 146.425 28.653 146.895 30.2199C147.098 30.9309 147.2 31.9042 147.2 33.1398C147.2 33.5056 147.081 33.9785 146.841 34.5548C146.615 35.1174 146.307 35.5212 145.924 35.7663C146.307 36.0217 146.615 36.4324 146.841 36.995C147.081 37.5472 147.2 38.0166 147.2 38.41V38.9243C147.2 39.8044 147.081 40.6085 146.841 41.3299C146.601 42.0409 146.242 42.6103 145.762 43.0383C145.295 43.4559 144.706 43.663 143.999 43.663L143.992 43.6665ZM143.992 42.5965C144.422 42.5965 144.784 42.4895 145.068 42.2341C145.417 41.9235 145.671 41.5024 145.847 40.9847C146.053 40.3669 146.151 39.6801 146.151 38.9243V38.41C146.151 38.1374 146.05 37.8129 145.88 37.4298C145.877 37.4195 145.874 37.4126 145.87 37.4022C145.735 37.0674 145.573 36.8086 145.346 36.6567C145.048 36.4565 144.869 36.1149 144.872 35.7525C144.876 35.3901 145.062 35.0518 145.366 34.8586C145.586 34.717 145.742 34.4686 145.87 34.1441C145.87 34.1407 145.87 34.1372 145.874 34.1338C146.043 33.7265 146.151 33.3986 146.151 33.1398C146.151 32.0353 146.07 31.1621 145.887 30.5236C145.576 29.4917 144.964 28.9395 143.992 28.9395C143.021 28.9395 142.389 29.4917 142.077 30.534C141.888 31.1725 141.8 32.0457 141.8 33.1467C141.824 33.4469 141.925 33.7886 142.088 34.1786C142.23 34.4858 142.396 34.724 142.615 34.8689C142.91 35.0622 143.093 35.397 143.096 35.7559C143.099 36.1149 142.927 36.4496 142.636 36.6533C142.406 36.812 142.233 37.0674 142.084 37.4022C141.922 37.7784 141.82 38.1097 141.8 38.4135V38.9277C141.8 39.6836 141.898 40.3704 142.105 40.9916C142.277 41.5059 142.531 41.9235 142.879 42.2376C143.174 42.4895 143.549 42.6 143.992 42.6V42.5965Z" fill="#E1DDD3"/>
</g>
<g id="Group_3">
<g id="Group_4">
<path id="Vector_9" d="M19.4341 5.61511C19.4341 4.20695 19.4341 2.86782 19.1262 1.45966V1.23532H22.628L27.3342 13.0735H27.3545L32.0878 1.23877H35.6133V1.46311C35.2614 2.87127 35.2614 4.2104 35.2614 5.61856V12.0278C35.2614 13.6568 35.4374 15.1547 35.6539 16.763V16.9874H32.8728V16.763C33.113 15.1547 33.2652 13.6361 33.2652 12.007V3.9619H33.2449L28.3831 15.5102H26.238L21.4201 3.9619H21.3998V11.9794C21.3998 13.5878 21.5757 15.172 21.7956 16.7596V16.9839H19.0145V16.7596C19.2547 15.1754 19.4104 13.6326 19.4104 12.0243L19.4307 5.61511H19.4341Z" fill="#EF3F24"/>
<path id="Vector_10" d="M56.9589 5.30104C56.9589 1.90489 59.3679 0.969566 62.149 0.969566C63.5734 0.969566 64.8624 1.16975 66.0229 1.61842L66.4594 3.9619V4.18624C65.0587 3.65128 63.9422 3.33721 62.3418 3.33721C60.0648 3.33721 59.1243 4.03093 59.1243 5.43564C59.1243 8.96294 66.9195 6.55388 66.9195 12.4937C66.9195 16.1349 64.4463 17.2738 61.6212 17.2738C60.0006 17.2738 58.4679 17.0046 57.1315 16.4041L56.695 14.0606V13.8363C58.2717 14.5507 60.0445 14.9096 61.425 14.9096C63.0659 14.9096 64.7305 14.4851 64.7305 12.5662C64.7305 8.54532 56.9589 11.3375 56.9589 5.30794V5.30104Z" fill="#EF3F24"/>
<path id="Vector_11" d="M84.0224 9.1217C84.0224 11.7585 83.2984 13.8121 82.0093 15.1961L85.7547 15.8898L85.1423 18.3472L79.3635 16.8735C78.5955 17.1185 77.7429 17.2531 76.8226 17.2531C72.3769 17.2531 69.6398 14.2815 69.6398 9.12515C69.6398 3.96881 72.3769 0.993725 76.8226 0.993725C81.2684 0.993725 84.0258 3.96536 84.0258 9.12515L84.0224 9.1217ZM71.7611 9.1217C71.7611 12.5834 73.6863 14.8613 76.8192 14.8613C79.9522 14.8613 81.8977 12.5834 81.8977 9.1217C81.8977 5.65998 79.9725 3.38207 76.8192 3.38207C73.666 3.38207 71.7611 5.65998 71.7611 9.1217Z" fill="#EF3F24"/>
<path id="Vector_12" d="M99.9378 9.94658C99.9378 14.7026 97.813 17.2497 93.9391 17.2497C90.4373 17.2497 87.9167 15.3066 87.9167 9.85684V5.79113C87.9167 4.25182 87.8084 2.9541 87.4802 1.45966V1.23532H90.4373V1.45966C90.1294 2.99897 90.0211 4.27253 90.0211 5.836V9.87755C90.0211 12.8043 91.0937 14.9683 93.9391 14.9683C96.7845 14.9683 97.813 12.9596 97.813 9.83268V5.836C97.813 4.27253 97.725 2.99897 97.3969 1.45966V1.23532H100.354V1.45966C100.026 2.93339 99.9378 4.22766 99.9378 5.74626V9.94658Z" fill="#EF3F24"/>
<path id="Vector_13" d="M106.725 12.7629C106.725 14.1918 106.833 15.3549 107.141 16.7596V16.9839H104.208V16.7596C104.515 15.3756 104.624 14.1918 104.624 12.7629V5.77387C104.624 4.27598 104.515 2.89198 104.208 1.44241V1.24223H107.141V1.44241C106.833 2.91614 106.725 4.27943 106.725 5.77387V12.7629Z" fill="#EF3F24"/>
<path id="Vector_14" d="M116.797 12.7629C116.797 14.1918 116.905 15.3549 117.213 16.7596V16.9839H114.28V16.7596C114.588 15.3756 114.696 14.1918 114.696 12.7629V5.77387C114.696 5.03528 114.672 4.30014 114.608 3.58571H113.732C112.551 3.58571 111.475 3.74102 110.294 3.85491V3.63057L110.754 1.24223H120.63L121.111 3.63057V3.85491C119.927 3.78934 118.834 3.58571 117.653 3.58571H116.885C116.821 4.30014 116.797 5.03873 116.797 5.77387V12.7629Z" fill="#EF3F24"/>
<path id="Vector_15" d="M137.598 9.12171C137.598 14.2815 134.861 17.2497 130.395 17.2497C125.929 17.2497 123.212 14.2781 123.212 9.12171C123.212 3.96536 125.949 0.990276 130.395 0.990276C134.84 0.990276 137.598 3.96191 137.598 9.12171ZM125.337 9.12171C125.337 12.5834 127.262 14.8613 130.395 14.8613C133.528 14.8613 135.473 12.5834 135.473 9.12171C135.473 5.65998 133.545 3.38208 130.395 3.38208C127.245 3.38208 125.337 5.65998 125.337 9.12171Z" fill="#EF3F24"/>
</g>
<g id="Group_5">
<path id="Vector_16" fill-rule="evenodd" clip-rule="evenodd" d="M43.5473 1.40099C43.5202 1.57701 43.4086 1.73232 43.2495 1.80825C41.1113 2.88162 39.5549 4.98351 39.1963 7.47885C39.1658 7.71009 39.3147 7.92408 39.538 7.97585C40.0252 8.08974 40.5733 8.24506 40.6647 8.26921C41.003 8.3624 41.3413 8.45904 41.6763 8.55913C41.7338 8.57639 41.7744 8.62816 41.7744 8.69028C41.7744 8.75241 41.7338 8.80418 41.6763 8.82143C41.0842 8.88356 40.2925 8.96639 39.6294 9.22524C39.0914 9.43578 38.8376 9.7326 38.0899 10.4401C38.0662 10.4643 38.0324 10.4712 38.002 10.4608C37.9715 10.4505 37.9478 10.4263 37.9411 10.3918C37.8159 9.78092 37.8193 9.24595 37.8193 8.57639C37.8193 5.01802 39.8763 1.94975 42.8435 0.534692C43.0262 0.448408 43.2428 0.476019 43.4018 0.60372C43.5608 0.731421 43.6353 0.941954 43.5947 1.14213C43.5811 1.22497 43.5676 1.31125 43.554 1.39754L43.5473 1.40099ZM39.4263 11.7482C39.4974 11.6999 39.582 11.6826 39.6666 11.7068C39.7478 11.7275 39.8154 11.7862 39.8527 11.8655C40.8507 13.9536 42.7657 15.5067 45.063 15.9727C45.4047 16.0348 45.7296 15.8105 45.8074 15.4653C45.8141 15.4653 45.8175 15.4653 45.8175 15.4653C45.9258 14.9683 46.078 14.4092 46.1017 14.316C46.1931 13.9709 46.2878 13.6257 46.3859 13.2841C46.4028 13.2254 46.4536 13.184 46.5145 13.184C46.5754 13.184 46.6261 13.2254 46.6431 13.2841C46.7378 13.6292 46.8325 13.9709 46.9273 14.316C46.9476 14.3919 47.0423 14.7405 47.1336 15.1271C47.1912 15.3928 47.3502 15.6241 47.5769 15.7656C47.8035 15.9106 48.0776 15.9554 48.3347 15.8898C49.7287 15.524 52.0463 13.1046 52.5166 12.6007C52.5301 12.5869 52.5538 12.58 52.5707 12.5869C52.591 12.5938 52.6045 12.611 52.6079 12.6317C52.6215 12.9286 52.6654 13.6637 52.7737 13.6637C52.909 13.6637 52.8887 12.5938 53.0105 12.0726C53.041 11.9415 53.6263 10.7266 53.7515 10.0984C53.809 9.78092 53.6094 9.47374 53.3015 9.40126V9.39436C52.8177 9.28392 52.2662 9.12861 52.1782 9.10445C51.8399 9.01126 51.5016 8.91117 51.1666 8.81453C51.1091 8.79727 51.0685 8.7455 51.0685 8.68338C51.0685 8.63851 51.0888 8.59709 51.1226 8.57294C51.1362 8.56258 51.1497 8.55568 51.1632 8.55223C51.285 8.51771 51.4034 8.4832 51.5252 8.44869C51.7418 8.38656 51.9583 8.32444 52.1782 8.26231C52.2493 8.2416 52.5876 8.14842 52.9666 8.05523C53.2237 7.99656 53.447 7.83434 53.5891 7.61C53.7312 7.38221 53.7752 7.1061 53.7177 6.8438C53.0884 4.13792 51.0313 1.98772 48.4024 1.28019C48.2908 1.25258 48.196 1.1732 48.1453 1.06965C48.0945 0.962662 48.0911 0.841864 48.1351 0.73142C48.2028 0.569206 48.2772 0.393186 48.3381 0.244777C48.4159 0.0618546 48.6122 -0.0382352 48.805 0.0135354C52.4929 1.04204 55.2063 4.48651 55.2063 8.57294C55.2063 13.467 51.3087 17.443 46.5111 17.443C43.1108 17.443 40.1639 15.4481 38.7361 12.5455C38.6719 12.4143 38.7125 12.259 38.8309 12.1762C39 12.0554 39.2436 11.8828 39.4297 11.7482H39.4263Z" fill="#1D1613"/>
<path id="Vector_17" fill-rule="evenodd" clip-rule="evenodd" d="M48.0099 8.3257C47.9795 8.30499 47.6614 9.18854 46.7885 10.8521C45.6822 10.5104 44.6435 9.95475 43.5371 9.60961C43.5371 9.60961 42.512 9.76492 40.7053 10.0341C40.3399 10.0893 39.8053 10.1204 39.6124 10.1963C38.6549 10.576 37.711 11.6701 37.4437 11.7046C37.3591 11.7149 39.2876 10.0721 39.5075 9.93749C39.5109 9.93749 43.5743 9.11261 43.5777 9.11261C44.5691 9.36111 45.4995 9.83395 46.4908 10.0824C47.1844 8.67429 47.3671 8.22216 47.269 8.26703C46.6769 8.49136 45.7972 8.62942 44.8194 8.62942C43.0262 8.62942 41.568 8.16694 41.568 7.59746C41.568 7.02798 43.0229 6.5655 44.8194 6.5655C45.8683 6.5655 46.8021 6.72426 47.3942 6.96931C47.5701 7.05559 47.7765 7.03834 47.9355 6.92099C48.0167 6.86232 48.1047 6.8071 48.2062 6.76223C48.0032 6.50683 47.7697 6.26178 47.5396 6.13408C46.2032 5.38513 43.3206 1.70942 44.8702 0.204624C46.3182 -1.20008 48.8862 5.27124 49.2652 6.5724C49.7422 6.60001 50.1584 6.76223 50.4223 7.00382C50.4933 7.0763 50.6084 7.09011 50.6896 7.03144C50.7911 6.96241 50.9129 6.92099 51.0448 6.92099C51.4102 6.92099 51.7046 7.22471 51.7046 7.60091C51.7046 7.97711 51.4102 8.28083 51.0448 8.28083C50.9129 8.28083 50.7911 8.24287 50.6896 8.17384C50.605 8.11516 50.4933 8.12897 50.4256 8.20145C50.3038 8.31189 50.243 8.36366 50.0636 8.43614C50.1042 8.47066 50.1516 8.73641 50.2497 9.95475C50.2531 10.0065 50.2802 10.0548 50.3208 10.0859C50.3614 10.117 50.4121 10.1308 50.4629 10.1239C51.0888 10.0307 53.0038 9.74766 53.0038 9.74766L52.997 9.9651C52.9936 10.186 52.9835 10.3965 52.7839 12.4604C52.7839 12.4742 52.7669 12.4881 52.7534 12.4846C52.7399 12.4846 52.7263 12.4708 52.7263 12.4535C52.7466 11.6356 52.7771 10.4517 52.7872 10.1239C52.7872 10.1032 52.7805 10.0824 52.7636 10.0686C52.7466 10.0548 52.7263 10.0514 52.706 10.0548C52.2188 10.1825 49.7727 10.821 49.7727 10.821C49.5291 9.02633 49.573 8.64322 49.6035 8.57765C49.5426 8.59145 49.4783 8.60181 49.414 8.60871C49.3294 8.61907 49.2618 8.68809 49.255 8.77783C48.9776 9.41978 47.8238 11.7978 47.4652 12.4604L44.4811 11.3456C44.1631 11.4526 44.5589 11.3491 41.0301 12.9057C44.4439 11.0971 44.0446 11.1938 44.4608 11.0178L47.2216 11.8461C48.5411 9.09536 48.6257 8.67429 48.7306 8.57075C48.4058 8.53278 48.2298 8.46721 48.0065 8.32225L48.0099 8.3257Z" fill="#1D1613"/>
</g>
</g>
</g>
</g>
</svg>
