<svg width="191" height="61" viewBox="0 0 191 61" fill="none" xmlns="http://www.w3.org/2000/svg">
<g id="MosquitoBandito_Logo_02 2" clip-path="url(#clip0_122_297)" filter="url(#filter0_i_122_297)">
<g id="Layer 1">
<g id="Group">
<g id="Group_2">
<path id="Vector" d="M14.7016 59.6992H1.28418C1.73985 59.0887 2.11267 58.0949 2.40678 56.718C2.71332 55.3285 2.87074 54.179 2.87074 53.2695V46.8609C2.87074 46.3851 2.71747 45.8082 2.40678 45.1345C2.11267 44.4481 1.73985 43.9471 1.28418 43.6355C1.73985 43.3365 2.11267 42.8439 2.40678 42.1575C2.71332 41.4544 2.87074 40.8817 2.87074 40.4312V34.0015C2.87074 33.0751 2.71747 31.9256 2.40678 30.5529C2.11267 29.1803 1.73985 28.1865 1.28418 27.5718H14.7057C16.8929 27.5718 18.8854 27.9592 20.6791 28.7381C22.4728 29.5003 23.8895 30.5992 24.9334 32.0309C25.9897 33.4625 26.5365 35.1889 26.5655 37.2058C26.5655 39.8038 25.6418 41.9639 23.7901 43.6776C25.5838 45.3366 26.5075 47.4546 26.5655 50.0399C26.5655 51.9684 26.0312 53.6527 24.9583 55.1011C23.9019 56.5328 22.4769 57.6612 20.6833 58.4823C18.8896 59.2908 16.9012 59.6908 14.7099 59.6908L14.7016 59.6992ZM14.7016 40.4312C15.965 40.4312 16.9343 40.1196 17.6096 39.4922C18.3014 38.8648 18.6452 38.1027 18.6452 37.2058C18.6452 36.3089 18.3304 35.5173 17.6966 34.9194C17.0628 34.3089 16.0644 34.0015 14.6974 34.0015H10.7538V40.4312H14.6974H14.7016ZM14.7016 53.2695C15.965 53.2695 16.9343 52.9579 17.6096 52.3305C18.3014 51.7031 18.6452 50.941 18.6452 50.0441C18.6452 49.1473 18.3304 48.3935 17.6966 47.783C17.0628 47.1725 16.0644 46.8651 14.6974 46.8651H10.7538V53.2737H14.6974L14.7016 53.2695Z" fill="#E1E1E1"/>
<path id="Vector_2" d="M55.7575 59.6994H44.6267C45.128 59.072 45.3765 57.8762 45.3765 56.1161C45.3765 55.0845 45.2812 54.1371 45.0907 53.2697H38.7652C38.558 54.1371 38.4586 55.0971 38.4586 56.1582C38.4586 57.9056 38.7072 59.0846 39.2084 59.6994H28.0776C28.5623 59.0888 29.1215 58.1162 29.7512 56.7856C30.3974 55.4424 30.8738 54.2676 31.1845 53.2697L33.0361 46.9537C33.1231 46.6716 33.1687 46.3263 33.1687 45.9221C33.1687 44.802 32.9243 43.9641 32.4396 43.4125C32.9699 43.2483 33.467 42.8904 33.9392 42.3388C34.4073 41.7703 34.718 41.2566 34.863 40.7935L36.8679 34.0059C37.3816 32.2458 37.6384 30.7342 37.6384 29.4794C37.6384 28.6415 37.4851 28.0099 37.1745 27.5762H46.6524C46.3458 28.0225 46.1884 28.6499 46.1884 29.4583C46.1884 30.7258 46.4535 32.2416 46.9838 34.0059L48.968 40.7935C49.1296 41.2566 49.4402 41.7703 49.8918 42.3388C50.3599 42.8904 50.8611 43.2483 51.3913 43.4125C50.9067 43.9809 50.6623 44.8231 50.6623 45.9431C50.6623 46.3179 50.7078 46.6505 50.7948 46.9495L52.6672 53.2655C52.9738 54.2676 53.446 55.4382 54.0756 56.7814C54.7094 58.112 55.2645 59.0804 55.7492 59.6952L55.7575 59.6994ZM43.5041 46.861L41.9176 40.4314L40.3517 46.861H43.5041Z" fill="#E1E1E1"/>
<path id="Vector_3" d="M85.7488 59.6992H76.2501L68.3588 43.6397V53.2737C68.3588 54.1832 68.5038 55.3327 68.7979 56.7223C69.1044 58.0949 69.4897 59.0887 69.9453 59.7034H58.8809C59.3365 59.0929 59.7094 58.0992 60.0035 56.7223C60.31 55.3327 60.4674 54.1832 60.4674 53.2737V46.8651C60.4674 46.3893 60.3141 45.8124 60.0035 45.1387C59.7094 44.4524 59.3365 43.9513 58.8809 43.6397C59.3365 43.3407 59.7094 42.8481 60.0035 42.1618C60.31 41.4586 60.4674 40.8859 60.4674 40.4354V34.0057C60.4674 33.0793 60.3141 31.9298 60.0035 30.5571C59.7094 29.1845 59.3365 28.1907 58.8809 27.576H68.3588L76.2501 43.6355V34.0015C76.2501 33.0751 76.1052 31.9256 75.811 30.5529C75.5335 29.1803 75.1565 28.1865 74.6884 27.5718H85.7529C85.2848 28.1823 84.8996 29.176 84.6055 30.5529C84.3113 31.9256 84.1664 33.0751 84.1664 34.0015V40.4312C84.1664 40.8775 84.3155 41.4544 84.6055 42.1575C84.8996 42.8439 85.2807 43.3365 85.7529 43.6355C85.2848 43.9471 84.8996 44.4482 84.6055 45.1345C84.3113 45.8082 84.1664 46.3808 84.1664 46.8609V53.2695C84.1664 54.179 84.3155 55.3285 84.6055 56.718C84.8996 58.0907 85.2807 59.0844 85.7529 59.6992H85.7488Z" fill="#E1E1E1"/>
<path id="Vector_4" d="M103.18 59.6992H89.7588C90.2145 59.0887 90.5873 58.0949 90.8814 56.718C91.1879 55.3285 91.3453 54.179 91.3453 53.2695V46.8609C91.3453 46.3851 91.1921 45.8082 90.8814 45.1345C90.5873 44.4481 90.2145 43.9471 89.7588 43.6355C90.2145 43.3365 90.5873 42.8439 90.8814 42.1575C91.1879 41.4544 91.3453 40.8817 91.3453 40.4312V34.0015C91.3453 33.0751 91.1921 31.9256 90.8814 30.5529C90.5873 29.1803 90.2145 28.1865 89.7588 27.5718H103.18C105.368 27.5718 107.36 28.0139 109.154 28.8939C110.947 29.7613 112.372 31.0498 113.429 32.7677C114.502 34.4689 115.036 36.5742 115.036 39.0838V40.608C115.082 41.1175 115.243 41.6817 115.521 42.3091C115.798 42.9197 116.159 43.3618 116.602 43.6313C116.163 43.9134 115.802 44.3639 115.521 44.9745C115.243 45.5724 115.082 46.1408 115.036 46.6756V48.1999C115.036 50.7094 114.502 52.8232 113.429 54.5411C112.372 56.2422 110.947 57.5265 109.154 58.3939C107.36 59.2613 105.372 59.695 103.18 59.695V59.6992ZM103.18 53.2695C104.063 53.2695 104.788 53.0169 105.363 52.5074C105.952 51.9852 106.391 51.2905 106.685 50.4231C106.979 49.5431 107.124 48.562 107.124 47.4883V46.8609C107.124 46.3851 106.979 45.8082 106.685 45.1345C106.391 44.4481 106.01 43.9471 105.537 43.6355C106.01 43.3365 106.391 42.8439 106.685 42.1575C106.979 41.4544 107.124 40.8817 107.124 40.4312C107.124 38.9237 107 37.7363 106.751 36.8689C106.179 34.9573 104.986 34.0015 103.18 34.0015H99.2367V40.4733C99.2657 40.9828 99.419 41.5638 99.7007 42.2207C99.9948 42.8607 100.368 43.3323 100.823 43.6313C100.368 43.9429 99.9948 44.4313 99.7007 45.0882C99.4231 45.7282 99.2657 46.3051 99.2367 46.8145V53.2653H103.18V53.2695Z" fill="#E1E1E1"/>
<path id="Vector_5" d="M131.034 59.6992H119.97C120.425 59.0887 120.798 58.0949 121.092 56.718C121.399 55.3285 121.556 54.179 121.556 53.2695V46.8609C121.556 46.3851 121.403 45.8082 121.092 45.1345C120.798 44.4481 120.425 43.9471 119.97 43.6355C120.425 43.3365 120.798 42.8439 121.092 42.1575C121.399 41.4544 121.556 40.8817 121.556 40.4312V34.0015C121.556 33.0751 121.403 31.9256 121.092 30.5529C120.798 29.1803 120.425 28.1865 119.97 27.5718H131.034C130.579 28.1823 130.197 29.176 129.887 30.5529C129.593 31.9256 129.448 33.0751 129.448 34.0015V40.4312C129.448 40.8775 129.597 41.4544 129.887 42.1575C130.193 42.8439 130.579 43.3365 131.034 43.6355C130.579 43.9471 130.197 44.4481 129.887 45.1345C129.593 45.8082 129.448 46.3808 129.448 46.8609V53.2695C129.448 54.179 129.597 55.3285 129.887 56.718C130.193 58.0907 130.579 59.0844 131.034 59.6992Z" fill="#E1E1E1"/>
<path id="Vector_6" d="M153.909 59.6992H142.844C143.3 59.0887 143.673 58.0949 143.967 56.718C144.273 55.3285 144.431 54.179 144.431 53.2695V46.8609C144.431 46.3851 144.277 45.8082 143.967 45.1345C143.673 44.4481 143.3 43.9471 142.844 43.6355C143.3 43.3365 143.673 42.8439 143.967 42.1575C144.273 41.4544 144.431 40.8817 144.431 40.4312V34.0015H142.844C141.949 34.0015 140.914 34.1573 139.737 34.4731C138.577 34.772 137.703 35.151 137.115 35.6142L134.162 27.5718H162.591L159.617 35.6142C159.045 35.151 158.175 34.772 157.016 34.4731C155.856 34.1615 154.82 34.0015 153.909 34.0015H152.322V40.4312C152.322 40.8775 152.467 41.4544 152.761 42.1575C153.055 42.8439 153.436 43.3365 153.909 43.6355C153.441 43.9471 153.055 44.4481 152.761 45.1345C152.467 45.8082 152.322 46.3808 152.322 46.8609V53.2695C152.322 54.179 152.467 55.3285 152.761 56.718C153.055 58.0907 153.436 59.0844 153.909 59.6992Z" fill="#E1E1E1"/>
<path id="Vector_7" d="M176.299 59.6994C174.095 59.6994 172.098 59.2657 170.305 58.3983C168.511 57.5309 167.086 56.2466 166.03 54.5455C164.973 52.8276 164.443 50.7138 164.443 48.2043V46.861C164.443 46.3852 164.29 45.8084 163.979 45.1347C163.685 44.4483 163.312 43.9473 162.856 43.6357C163.312 43.3367 163.685 42.8441 163.979 42.1577C164.286 41.4545 164.443 40.8819 164.443 40.4314V39.0882C164.443 36.5786 164.973 34.4733 166.03 32.7721C167.086 31.0542 168.511 29.7615 170.305 28.8983C172.098 28.0183 174.095 27.5762 176.299 27.5762C178.502 27.5762 180.47 28.0183 182.247 28.8983C184.041 29.7657 185.466 31.0542 186.522 32.7721C187.595 34.4733 188.13 36.5786 188.13 39.0882V40.6124C188.175 41.1219 188.337 41.6861 188.614 42.3135C188.908 42.9241 189.277 43.3662 189.716 43.6357C189.277 43.9178 188.908 44.3683 188.614 44.9789C188.337 45.5768 188.175 46.1452 188.13 46.68V48.2043C188.13 50.7138 187.595 52.8276 186.522 54.5455C185.466 56.2466 184.041 57.5309 182.247 58.3983C180.47 59.2657 178.486 59.6994 176.299 59.6994ZM176.299 53.2697C177.164 53.2697 177.885 53.017 178.457 52.5076C179.045 51.9854 179.484 51.2907 179.778 50.4233C180.072 49.5432 180.217 48.5622 180.217 47.4884V46.861C180.217 46.3852 180.072 45.8084 179.778 45.1347C179.501 44.4483 179.124 43.9473 178.656 43.6357C179.124 43.3367 179.501 42.8441 179.778 42.1577C180.072 41.4545 180.217 40.8819 180.217 40.4314C180.217 38.9239 180.093 37.7365 179.845 36.8691C179.273 34.9575 178.088 34.0017 176.295 34.0017C174.501 34.0017 173.295 34.9575 172.724 36.8691C172.459 37.7492 172.326 38.9534 172.326 40.4777C172.355 40.9872 172.508 41.5682 172.79 42.2251C173.084 42.8651 173.457 43.3367 173.913 43.6357C173.457 43.9473 173.084 44.4357 172.79 45.0926C172.512 45.7326 172.355 46.3095 172.326 46.8189V47.4927C172.326 48.5664 172.471 49.5475 172.765 50.4275C173.059 51.2949 173.498 51.9896 174.087 52.5118C174.675 53.0213 175.408 53.2739 176.29 53.2739L176.299 53.2697Z" fill="#E1E1E1"/>
</g>
<g id="Group_3">
<g id="Group_4">
<path id="Vector_8" d="M23.7944 6.84676C23.7944 5.12881 23.7944 3.49507 23.4175 1.77711V1.50342H27.7049L33.467 15.946H33.4919L39.2872 1.50763H43.6036V1.78132C43.1728 3.49928 43.1728 5.13302 43.1728 6.85097V14.6702C43.1728 16.6576 43.3882 18.4851 43.6533 20.4472V20.7209H40.2482V20.4472C40.5423 18.4851 40.7288 16.6324 40.7288 14.6449V4.82985H40.7039L34.7512 18.9188H32.1249L26.226 4.82985H26.2012V14.6112C26.2012 16.5734 26.4166 18.5061 26.6859 20.443V20.7167H23.2808V20.443C23.5749 18.5103 23.7654 16.6282 23.7654 14.666L23.7903 6.84676H23.7944Z" fill="#F3F3F3"/>
<path id="Vector_9" d="M69.7381 6.46359C69.7381 2.32029 72.6876 1.1792 76.0927 1.1792C77.8366 1.1792 79.4149 1.42342 80.8358 1.97081L81.3701 4.82985V5.10355C79.6552 4.45089 78.2882 4.06772 76.3288 4.06772C73.5409 4.06772 72.3893 4.91406 72.3893 6.62781C72.3893 10.9311 81.9335 7.99207 81.9335 15.2386C81.9335 19.6809 78.9054 21.0704 75.4464 21.0704C73.4622 21.0704 71.5857 20.742 69.9494 20.0093L69.415 17.1503V16.8766C71.3454 17.7482 73.5161 18.1861 75.2062 18.1861C77.2153 18.1861 79.2534 17.6682 79.2534 15.3271C79.2534 10.4216 69.7381 13.8281 69.7381 6.47201V6.46359Z" fill="#F3F3F3"/>
<path id="Vector_10" d="M102.874 11.1246C102.874 14.3416 101.987 16.8469 100.409 18.5354L104.995 19.3818L104.245 22.3798L97.1696 20.5818C96.2292 20.8808 95.1853 21.045 94.0586 21.045C88.6154 21.045 85.2642 17.4196 85.2642 11.1288C85.2642 4.8381 88.6154 1.2085 94.0586 1.2085C99.5018 1.2085 102.878 4.83389 102.878 11.1288L102.874 11.1246ZM87.8615 11.1246C87.8615 15.3479 90.2185 18.127 94.0544 18.127C97.8903 18.127 100.272 15.3479 100.272 11.1246C100.272 6.90132 97.9152 4.12228 94.0544 4.12228C90.1937 4.12228 87.8615 6.90132 87.8615 11.1246Z" fill="#F3F3F3"/>
<path id="Vector_11" d="M122.36 12.1312C122.36 17.9335 119.758 21.0409 115.015 21.0409C110.728 21.0409 107.642 18.6703 107.642 12.0217V7.0615C107.642 5.18355 107.509 3.60033 107.107 1.77711V1.50342H110.728V1.77711C110.351 3.65507 110.218 5.20881 110.218 7.11624V12.0469C110.218 15.6176 111.532 18.2577 115.015 18.2577C118.499 18.2577 119.758 15.8071 119.758 11.9922V7.11624C119.758 5.20881 119.651 3.65507 119.249 1.77711V1.50342H122.869V1.77711C122.468 3.57507 122.36 5.15407 122.36 7.00677V12.1312Z" fill="#F3F3F3"/>
<path id="Vector_12" d="M130.669 15.5669C130.669 17.3102 130.802 18.7292 131.179 20.4429V20.7166H127.587V20.4429C127.964 18.7544 128.097 17.3102 128.097 15.5669V7.04033C128.097 5.2129 127.964 3.52442 127.587 1.75594V1.51172H131.179V1.75594C130.802 3.55389 130.669 5.21711 130.669 7.04033V15.5669Z" fill="#F3F3F3"/>
<path id="Vector_13" d="M143.002 15.5669C143.002 17.3102 143.134 18.7292 143.511 20.4429V20.7166H139.92V20.4429C140.297 18.7544 140.429 17.3102 140.429 15.5669V7.04033C140.429 6.13925 140.4 5.24237 140.322 4.37076H139.249C137.803 4.37076 136.486 4.56025 135.04 4.6992V4.4255L135.603 1.51172H147.695L148.283 4.4255V4.6992C146.834 4.61919 145.496 4.37076 144.05 4.37076H143.11C143.031 5.24237 143.002 6.14346 143.002 7.04033V15.5669Z" fill="#F3F3F3"/>
<path id="Vector_14" d="M168.47 11.1249C168.47 17.4199 165.118 21.0411 159.65 21.0411C154.182 21.0411 150.856 17.4157 150.856 11.1249C150.856 4.83419 154.207 1.20459 159.65 1.20459C165.094 1.20459 168.47 4.82998 168.47 11.1249ZM153.457 11.1249C153.457 15.3482 155.814 18.1273 159.65 18.1273C163.486 18.1273 165.868 15.3482 165.868 11.1249C165.868 6.90163 163.507 4.12259 159.65 4.12259C155.794 4.12259 153.457 6.90163 153.457 11.1249Z" fill="#F3F3F3"/>
</g>
<g id="Group_5">
<path id="Vector_15" fill-rule="evenodd" clip-rule="evenodd" d="M53.3174 1.70538C53.2842 1.92012 53.1475 2.1096 52.9528 2.20224C50.3348 3.51175 48.4293 6.07605 47.9902 9.12037C47.9529 9.40248 48.1352 9.66355 48.4086 9.72671C49.0051 9.86566 49.6762 10.0551 49.788 10.0846C50.2023 10.1983 50.6165 10.3162 51.0266 10.4383C51.097 10.4594 51.1467 10.5225 51.1467 10.5983C51.1467 10.6741 51.097 10.7373 51.0266 10.7583C50.3017 10.8341 49.3323 10.9352 48.5204 11.251C47.8618 11.5078 47.5511 11.8699 46.6356 12.7331C46.6066 12.7626 46.5652 12.771 46.5279 12.7584C46.4906 12.7458 46.4616 12.7163 46.4533 12.6742C46.3001 11.9289 46.3042 11.2762 46.3042 10.4594C46.3042 6.11816 48.8228 2.37487 52.4557 0.648497C52.6794 0.543231 52.9446 0.576916 53.1393 0.732711C53.3339 0.888506 53.4251 1.14536 53.3754 1.38958C53.3588 1.49063 53.3422 1.5959 53.3257 1.70117L53.3174 1.70538ZM48.2719 14.329C48.3589 14.27 48.4624 14.249 48.566 14.2784C48.6654 14.3037 48.7483 14.3753 48.7938 14.4721C50.0158 17.0196 52.3605 18.9144 55.1732 19.4828C55.5916 19.5586 55.9893 19.2849 56.0845 18.8639C56.0928 18.8639 56.097 18.8639 56.097 18.8639C56.2295 18.2575 56.4159 17.5754 56.4449 17.4617C56.5568 17.0406 56.6728 16.6196 56.7929 16.2027C56.8136 16.1311 56.8757 16.0806 56.9503 16.0806C57.0249 16.0806 57.087 16.1311 57.1077 16.2027C57.2237 16.6238 57.3397 17.0406 57.4557 17.4617C57.4805 17.5543 57.5965 17.9796 57.7084 18.4512C57.7788 18.7754 57.9735 19.0576 58.251 19.2302C58.5286 19.407 58.8641 19.4618 59.1789 19.3818C60.8856 18.9354 63.7232 15.9838 64.299 15.369C64.3156 15.3522 64.3446 15.3437 64.3653 15.3522C64.3901 15.3606 64.4067 15.3816 64.4109 15.4069C64.4274 15.769 64.4813 16.6659 64.6138 16.6659C64.7795 16.6659 64.7547 15.3606 64.9038 14.7248C64.9411 14.5648 65.6577 13.0826 65.811 12.3163C65.8814 11.9289 65.637 11.5541 65.2601 11.4657V11.4573C64.6677 11.3225 63.9925 11.1331 63.8848 11.1036C63.4705 10.9899 63.0563 10.8678 62.6462 10.7499C62.5757 10.7288 62.526 10.6657 62.526 10.5899C62.526 10.5352 62.5509 10.4846 62.5923 10.4552C62.6089 10.4425 62.6255 10.4341 62.642 10.4299C62.7912 10.3878 62.9361 10.3457 63.0853 10.3036C63.3504 10.2278 63.6155 10.152 63.8848 10.0762C63.9718 10.0509 64.386 9.93724 64.85 9.82355C65.1648 9.75197 65.4382 9.55407 65.6122 9.28037C65.7861 9.00247 65.84 8.66562 65.7696 8.3456C64.9991 5.04444 62.4805 2.42119 59.2618 1.558C59.1251 1.52432 59.0091 1.42747 58.947 1.30115C58.8848 1.17062 58.8807 1.02325 58.9345 0.888506C59.0174 0.690604 59.1085 0.47586 59.1831 0.294801C59.2784 0.0716354 59.5186 -0.0504741 59.7547 0.012686C64.27 1.26747 67.5923 5.46972 67.5923 10.4552C67.5923 16.4259 62.8202 21.2766 56.9462 21.2766C52.783 21.2766 49.1749 18.8428 47.4268 15.3016C47.3481 15.1416 47.3978 14.9522 47.5428 14.8511C47.7499 14.7037 48.0482 14.4932 48.276 14.329H48.2719Z" fill="#E1E1E1"/>
<path id="Vector_16" fill-rule="evenodd" clip-rule="evenodd" d="M58.7815 10.1522C58.7442 10.1269 58.3548 11.2048 57.2861 13.2344C55.9315 12.8175 54.6597 12.1396 53.3052 11.7185C53.3052 11.7185 52.05 11.908 49.8379 12.2364C49.3906 12.3038 48.736 12.3417 48.4999 12.4343C47.3276 12.8975 46.1719 14.2323 45.8446 14.2744C45.7411 14.287 48.1022 12.2828 48.3715 12.1185C48.3757 12.1185 53.3507 11.1122 53.3549 11.1122C54.5686 11.4154 55.7078 11.9922 56.9215 12.2954C57.7707 10.5774 57.9944 10.0258 57.8743 10.0806C57.1494 10.3543 56.0723 10.5227 54.8752 10.5227C52.6797 10.5227 50.8943 9.95846 50.8943 9.2637C50.8943 8.56894 52.6755 8.00471 54.8752 8.00471C56.1593 8.00471 57.3026 8.1984 58.0276 8.49736C58.243 8.60262 58.4957 8.58157 58.6903 8.43841C58.7898 8.36683 58.8975 8.29946 59.0217 8.24472C58.7732 7.93313 58.4874 7.63417 58.2057 7.47837C56.5694 6.56466 53.04 2.08029 54.9373 0.244441C56.7103 -1.4693 59.8544 6.42571 60.3183 8.01313C60.9024 8.04682 61.4119 8.24472 61.735 8.53946C61.822 8.62789 61.9629 8.64473 62.0623 8.57315C62.1866 8.48894 62.3357 8.43841 62.4973 8.43841C62.9446 8.43841 63.305 8.80895 63.305 9.26791C63.305 9.72687 62.9446 10.0974 62.4973 10.0974C62.3357 10.0974 62.1866 10.0511 62.0623 9.96688C61.9587 9.8953 61.822 9.91214 61.7392 10.0006C61.5901 10.1353 61.5155 10.1985 61.2959 10.2869C61.3457 10.329 61.4037 10.6532 61.5238 12.1396C61.5279 12.2027 61.5611 12.2617 61.6108 12.2996C61.6605 12.3375 61.7226 12.3543 61.7848 12.3459C62.5511 12.2322 64.8957 11.8869 64.8957 11.8869L64.8875 12.1522C64.8833 12.4217 64.8709 12.6786 64.6265 15.1965C64.6265 15.2134 64.6058 15.2302 64.5892 15.226C64.5726 15.226 64.5561 15.2092 64.5561 15.1881C64.5809 14.1902 64.6182 12.7459 64.6306 12.3459C64.6306 12.3206 64.6223 12.2954 64.6016 12.2785C64.5809 12.2617 64.5561 12.2575 64.5312 12.2617C63.9347 12.4175 60.9397 13.1965 60.9397 13.1965C60.6414 11.0069 60.6953 10.5395 60.7326 10.4595C60.658 10.4764 60.5793 10.489 60.5006 10.4974C60.397 10.5101 60.3142 10.5943 60.3059 10.7037C59.9662 11.4869 58.5536 14.3881 58.1145 15.1965L54.4609 13.8365C54.0715 13.967 54.5562 13.8407 50.2356 15.7397C54.4153 13.5333 53.9265 13.6512 54.4361 13.4365L57.8163 14.447C59.4319 11.0911 59.5354 10.5774 59.6638 10.4511C59.2661 10.4048 59.0507 10.3248 58.7773 10.1479L58.7815 10.1522Z" fill="#E1E1E1"/>
</g>
</g>
</g>
</g>
</g>
<defs>
<filter id="filter0_i_122_297" x="0" y="0" width="191" height="65" filterUnits="userSpaceOnUse" color-interpolation-filters="sRGB">
<feFlood flood-opacity="0" result="BackgroundImageFix"/>
<feBlend mode="normal" in="SourceGraphic" in2="BackgroundImageFix" result="shape"/>
<feColorMatrix in="SourceAlpha" type="matrix" values="0 0 0 0 0 0 0 0 0 0 0 0 0 0 0 0 0 0 127 0" result="hardAlpha"/>
<feOffset dy="4"/>
<feGaussianBlur stdDeviation="2"/>
<feComposite in2="hardAlpha" operator="arithmetic" k2="-1" k3="1"/>
<feColorMatrix type="matrix" values="0 0 0 0 0 0 0 0 0 0 0 0 0 0 0 0 0 0 0.25 0"/>
<feBlend mode="normal" in2="shape" result="effect1_innerShadow_122_297"/>
</filter>
<clipPath id="clip0_122_297">
<rect width="191" height="61" fill="white"/>
</clipPath>
</defs>
</svg>
