<svg width="24" height="24" viewBox="0 0 24 24" fill="none" xmlns="http://www.w3.org/2000/svg">
<path id="Vector" d="M22.1078 23.9963C19.2279 23.7818 16.4968 23.0726 13.9144 21.8689C11.332 20.6652 9.01738 19.0384 6.97051 16.9884C4.92364 14.9385 3.31113 12.6264 2.13299 10.0521C0.954849 7.47775 0.246775 4.7485 0.00876643 1.86431C-0.0388352 1.36375 0.107421 0.928733 0.447534 0.559271C0.78741 0.189809 1.21237 0.00507736 1.72243 0.00507736H6.57779C6.98241 0.00507736 7.33347 0.130218 7.63098 0.380499C7.92849 0.63078 8.12485 0.946611 8.22005 1.32799L9.07688 5.11796C9.12448 5.42783 9.10663 5.72579 9.02333 6.01182C8.94003 6.29786 8.80317 6.53622 8.61277 6.72691L5.14974 10.2308C5.62576 11.1366 6.17318 12.0066 6.792 12.8409C7.41082 13.6752 8.10069 14.4615 8.8616 15.2C9.57634 15.9156 10.3383 16.5773 11.1476 17.1851C11.9568 17.7929 12.8136 18.3352 13.718 18.8119L17.2525 15.3795C17.4429 15.1888 17.6809 15.0517 17.9665 14.9683C18.2521 14.8849 18.5496 14.867 18.859 14.9147L22.6791 15.737C23.0837 15.8562 23.405 16.0648 23.643 16.3627C23.881 16.6607 24 17.0123 24 17.4175V22.2801C24 22.7909 23.8096 23.2165 23.4288 23.5569C23.048 23.8975 22.6077 24.044 22.1078 23.9963ZM3.9716 7.72803L6.47069 5.22522L5.85806 2.5794H2.65066C2.76966 3.48517 2.93627 4.36116 3.15048 5.20735C3.36468 6.05353 3.63839 6.89376 3.9716 7.72803ZM16.2528 20.0276C17.0882 20.367 17.9397 20.6366 18.8073 20.8363C19.6748 21.0361 20.5489 21.1955 21.4295 21.3147V18.0968L18.7519 17.5247L16.2528 20.0276Z" fill="#6B6B6B"/>
</svg>
